<?xml version="1.0" standalone="no"?><!DOCTYPE svg PUBLIC "-//W3C//DTD SVG 1.1//EN" "http://www.w3.org/Graphics/SVG/1.1/DTD/svg11.dtd"><svg t="1676120551757" class="icon" viewBox="0 0 1024 1024" version="1.1" xmlns="http://www.w3.org/2000/svg" p-id="2238" xmlns:xlink="http://www.w3.org/1999/xlink" width="200" height="200"><path d="M428.544 156.672v275.968h-276.48V156.672h276.48m11.776-51.2H140.288c-21.504 0-38.912 17.408-38.912 38.912v300.544c0 21.504 17.408 38.912 38.912 38.912h339.456V144.896c0-21.504-17.92-39.424-39.424-39.424zM428.544 588.288v275.968h-276.48v-275.968h276.48m51.2-51.2H140.288c-21.504 0-38.912 17.408-38.912 38.912v300.544c0 21.504 17.408 38.912 38.912 38.912H440.32c21.504 0 38.912-17.408 38.912-38.912v-339.456h0.512z" fill="#4E63DD" p-id="2239"></path><path d="M871.936 155.136v275.968h-275.968V155.136h275.968m12.288-51.2H583.68c-21.504 0-38.912 17.408-38.912 38.912v339.456h339.456c21.504 0 38.912-17.408 38.912-38.912V142.848c0-21.504-17.92-38.912-38.912-38.912z" fill="#CAD3FF" p-id="2240"></path><path d="M871.936 586.752v275.968h-275.968v-275.968h275.968m12.288-51.2h-339.456v339.456c0 21.504 17.408 38.912 38.912 38.912h300.544c21.504 0 38.912-17.408 38.912-38.912v-300.544c0-21.504-17.92-38.912-38.912-38.912z" fill="#4E63DD" p-id="2241"></path></svg>