<?xml version="1.0" standalone="no"?><!DOCTYPE svg PUBLIC "-//W3C//DTD SVG 1.1//EN" "http://www.w3.org/Graphics/SVG/1.1/DTD/svg11.dtd"><svg t="1676120527170" class="icon" viewBox="0 0 1024 1024" version="1.1" xmlns="http://www.w3.org/2000/svg" p-id="1802" xmlns:xlink="http://www.w3.org/1999/xlink" width="200" height="200"><path d="M512 670.208c135.168 0 262.656 58.88 350.208 161.28 5.12 6.144 8.192 13.824 8.192 22.016 0 18.944-15.36 33.792-34.304 33.792H188.416c-8.192 0-15.872-3.072-22.016-8.192-7.168-6.144-11.264-14.336-11.776-23.04-0.512-9.216 2.048-17.92 7.68-24.576 15.36-17.92 32.768-35.328 50.688-50.688 82.944-71.68 189.44-110.592 299.008-110.592m0-51.2c-117.76 0-236.032 40.448-332.288 122.88-19.968 17.408-38.912 36.352-56.32 56.32-30.72 35.84-26.112 89.6 9.728 120.32 15.36 13.312 34.816 20.48 55.296 20.48h648.192c47.104 0 84.992-37.888 85.504-84.992 0-20.48-7.168-39.936-20.48-55.296-101.888-119.296-245.248-179.712-389.632-179.712zM522.24 131.584c101.376 0 183.296 82.432 183.296 183.808 0 101.376-82.432 183.296-183.296 183.296-49.152 0-95.232-18.944-129.536-53.76-34.816-34.816-53.76-80.896-53.76-130.048 0-101.376 81.92-183.296 183.296-183.296m0-51.2c-129.536 0-234.496 104.96-234.496 234.496 0 129.536 104.96 234.496 234.496 235.008 129.536 0 234.496-104.96 234.496-234.496 0-130.048-104.96-235.008-234.496-235.008z" fill="#4E63DD" p-id="1803"></path><path d="M408.576 338.944h-3.584c-13.824-2.048-24.064-14.848-22.016-28.672 0.512-4.096 14.336-98.304 100.352-129.536 13.312-4.608 28.16 2.048 32.768 15.36 4.608 13.312-2.048 28.16-15.36 32.768-57.344 20.992-67.072 87.552-67.072 88.064-1.536 12.288-12.8 22.016-25.088 22.016z" fill="#CAD3FF" p-id="1804"></path></svg>