<?xml version="1.0" standalone="no"?><!DOCTYPE svg PUBLIC "-//W3C//DTD SVG 1.1//EN" "http://www.w3.org/Graphics/SVG/1.1/DTD/svg11.dtd"><svg t="1676120533036" class="icon" viewBox="0 0 1024 1024" version="1.1" xmlns="http://www.w3.org/2000/svg" p-id="1948" xmlns:xlink="http://www.w3.org/1999/xlink" width="200" height="200"><path d="M506.88 241.152c98.304 0 190.464 29.696 259.072 83.456 65.024 50.688 100.864 117.248 100.864 186.88s-35.84 136.192-100.864 186.88c-68.608 53.76-160.768 83.456-259.072 83.456-53.248 0-104.96-8.704-152.576-25.6-8.704-3.072-18.432-4.608-30.72-4.608-17.92 0-43.52 3.584-70.144 8.704 5.632-23.04 5.632-51.2-17.92-72.192-56.832-49.152-88.064-112.128-88.064-176.64 0-69.632 35.84-136.192 100.864-186.88C316.416 270.848 408.576 241.152 506.88 241.152m0-51.2c-226.816 0-411.136 143.872-411.136 321.536 0 82.944 39.936 158.208 105.472 215.552 13.824 12.288-19.968 74.24-33.28 97.792-1.536 3.072 0.512 6.144 3.584 6.144h1.024c28.672-7.168 112.64-27.648 150.016-27.648 5.632 0 10.752 0.512 13.824 1.536 51.712 18.432 109.568 28.672 169.984 28.672 226.816 0 411.136-143.872 411.136-321.536S733.696 189.952 506.88 189.952z" fill="#4E63DD" p-id="1949"></path><path d="M288.256 491.52H573.44c14.336 0 25.6-11.264 25.6-25.6s-11.264-25.6-25.6-25.6H288.256c-13.824 0-25.6 11.264-25.6 25.6s11.264 25.6 25.6 25.6zM288.256 615.936h355.328c13.824 0 25.6-11.264 25.6-25.6 0-13.824-11.264-25.6-25.6-25.6H288.256c-13.824 0-25.6 11.264-25.6 25.6s11.264 25.6 25.6 25.6zM676.864 491.52h32.768c14.336 0 25.6-11.264 25.6-25.6s-11.264-25.6-25.6-25.6h-32.768c-14.336 0-25.6 11.264-25.6 25.6s11.776 25.6 25.6 25.6z" fill="#CAD3FF" p-id="1950"></path></svg>