<?xml version="1.0" standalone="no"?><!DOCTYPE svg PUBLIC "-//W3C//DTD SVG 1.1//EN" "http://www.w3.org/Graphics/SVG/1.1/DTD/svg11.dtd"><svg t="1676120545344" class="icon" viewBox="0 0 1024 1024" version="1.1" xmlns="http://www.w3.org/2000/svg" p-id="2092" xmlns:xlink="http://www.w3.org/1999/xlink" width="200" height="200"><path d="M613.888 715.264h-41.984C448.512 715.264 348.16 614.912 348.16 491.52s99.84-223.232 223.232-223.232h41.984c123.392 0 223.232 99.84 223.232 223.232 0.512 123.392-99.328 223.744-222.72 223.744z" fill="#CAD3FF" opacity=".2" p-id="2093"></path><path d="M849.408 916.992H176.64c-38.912 0-70.656-31.744-70.656-70.656V172.032c0-38.912 31.744-70.656 70.656-70.656h379.392c14.336 0 25.6 11.264 25.6 25.6s-11.264 25.6-25.6 25.6H176.64c-10.752 0-19.456 8.704-19.456 19.456v674.304c0 10.752 8.704 19.456 19.456 19.456h672.768c10.752 0 19.456-8.704 19.456-19.456V374.272c0-14.336 11.264-25.6 25.6-25.6s25.6 11.264 25.6 25.6v472.064c0 38.912-31.744 70.656-70.656 70.656z" fill="#4E63DD" p-id="2094"></path><path d="M679.936 365.568c-6.656 0-13.312-2.56-18.432-7.68-9.728-10.24-9.728-26.112 0.512-36.352l209.408-204.8c10.24-9.728 26.112-9.728 36.352 0.512 9.728 10.24 9.728 26.112-0.512 36.352l-209.408 204.8c-5.12 4.608-11.264 7.168-17.92 7.168z" fill="#4E63DD" p-id="2095"></path><path d="M612.352 517.12H258.56c-14.336 0-25.6-11.264-25.6-25.6s11.264-25.6 25.6-25.6h353.792c14.336 0 25.6 11.264 25.6 25.6s-11.264 25.6-25.6 25.6zM759.296 673.792H267.264c-14.336 0-25.6-11.264-25.6-25.6s11.264-25.6 25.6-25.6h492.032c14.336 0 25.6 11.264 25.6 25.6s-11.264 25.6-25.6 25.6z" fill="#4E63DD" opacity=".5" p-id="2096"></path></svg>