<?xml version="1.0" standalone="no"?><!DOCTYPE svg PUBLIC "-//W3C//DTD SVG 1.1//EN" "http://www.w3.org/Graphics/SVG/1.1/DTD/svg11.dtd"><svg t="1676120557178" class="icon" viewBox="0 0 1024 1024" version="1.1" xmlns="http://www.w3.org/2000/svg" p-id="2383" xmlns:xlink="http://www.w3.org/1999/xlink" width="200" height="200"><path d="M511.488 150.016l309.248 289.28c-9.728 11.776-15.36 27.136-15.36 43.52v404.992H217.088V482.304c0-16.384-5.632-31.744-15.36-43.52l309.76-288.768m0-63.488c-4.608 0-9.216 1.536-12.8 5.12L134.656 431.616c-12.288 11.264-4.096 32.256 12.8 32.256 10.24 0 18.432 8.192 18.432 18.432v437.76c0 10.24 8.192 18.432 18.432 18.432h653.312c10.24 0 18.432-8.192 18.432-18.432V482.304c0-10.24 8.192-18.432 18.432-18.432 16.896 0 25.088-20.48 12.8-32.256l-364.032-339.968c-2.56-3.072-7.168-5.12-11.776-5.12z" fill="#4E63DD" p-id="2384"></path><path d="M454.144 465.408h-1.536c-13.824 0-25.088 11.264-25.088 25.088v397.312h51.2V490.496c0.512-13.824-10.752-25.088-24.576-25.088zM691.712 661.504h-1.536c-13.824 0-25.088 11.264-25.088 25.088v201.216h51.2V686.08c0.512-13.824-10.752-24.576-24.576-24.576zM335.36 600.576h-1.536c-13.824 0-25.088 11.264-25.088 25.088v262.144h51.2v-262.144c0.512-14.336-10.752-25.088-24.576-25.088zM572.928 743.936h-1.536c-13.824 0-25.088 11.264-25.088 25.088v118.784h51.2v-118.784c0.512-13.824-10.752-25.088-24.576-25.088z" fill="#CAD3FF" p-id="2385"></path></svg>